<svg width="1024" height="1024" version="1.1" xmlns="http://www.w3.org/2000/svg" desc="Created with imagetracer.js version 1.2.6" ><path fill="rgb(0,0,0)" stroke="rgb(0,0,0)" stroke-width="1" opacity="0.9764705882352941" d="M 596.5 73 Q 613.5 71.5 619 81.5 Q 622.4 86.6 621 96.5 Q 618.4 103.9 612.5 108 L 596.5 113 L 583.5 119 Q 570 127 560 138.5 Q 548.1 151.4 542 169 L 547.5 169 L 564.5 173 L 586.5 182 Q 615.1 196.9 635 220.5 Q 652.2 240.8 663 267.5 L 670 291.5 L 673 309.5 L 680 337.5 L 699 389.5 L 720 432.5 L 753 489.5 L 766 516.5 L 776 542.5 L 785 575.5 L 789 598.5 L 789 604.5 L 790 605.5 L 790 615.5 L 791 616.5 L 791 658.5 L 790 659.5 L 790 669.5 L 789 670.5 L 789 678.5 L 788 679.5 L 787 690.5 L 781 716.5 Q 771.6 748.1 757 774.5 Q 730.9 820.9 692.5 855 Q 656.4 887.4 607.5 907 L 583.5 915 L 548.5 922 L 539.5 922 L 538.5 923 L 490.5 923 L 489.5 922 L 480.5 922 L 479.5 921 L 460.5 919 L 439.5 914 L 400.5 900 Q 350 877 314 839.5 Q 273.6 799.4 251 741.5 L 243 717.5 L 236 685.5 L 235 671.5 L 234 670.5 L 234 660.5 L 233 659.5 L 233 619.5 L 234 618.5 L 235 598.5 L 240 570.5 L 251 533.5 Q 262 505 276 479.5 Q 305 435.5 327 384.5 L 345 333.5 L 355 285.5 L 364 259.5 Q 379.3 225.8 405.5 203 Q 425.1 185.6 451.5 175 L 474.5 168 L 485.5 167 L 486.5 166 L 504.5 165 L 506 163.5 L 509 151.5 L 519 131.5 Q 531.6 111.1 549.5 96 L 574.5 80 L 596.5 73 Z M 500 202 L 475 207 L 461 212 Q 444 219 432 230 Q 412 246 400 271 L 392 292 L 385 327 L 377 356 L 362 397 Q 339 450 309 497 L 287 544 L 279 568 L 273 594 L 271 616 L 270 617 L 270 636 L 269 637 L 270 661 L 271 662 L 273 684 L 282 719 Q 300 768 331 804 Q 358 836 397 857 Q 418 869 444 877 L 468 883 L 486 885 L 487 886 L 496 886 L 497 887 L 530 887 L 531 886 L 548 885 L 576 879 L 594 873 Q 639 855 672 825 Q 707 793 730 748 Q 740 727 747 703 L 752 680 L 753 665 L 754 664 L 754 653 L 755 652 L 755 626 L 754 625 L 753 604 L 748 578 L 739 549 L 720 507 L 691 457 L 665 404 L 646 353 L 636 314 L 633 297 L 628 282 Q 620 261 607 246 Q 588 222 558 210 L 531 203 Q 524 205 523 202 L 500 202 Z " /><path fill="rgb(0,0,0)" stroke="rgb(0,0,0)" stroke-width="1" opacity="0.9764705882352941" d="M 443.5 348 L 454.5 348 Q 461.9 350.6 466 356.5 L 470 369.5 L 468 378.5 L 462.5 386 Q 457.3 391.3 446.5 391 L 437.5 388 L 432 382.5 Q 426.6 376.9 428 364.5 Q 429.7 356.2 435.5 352 L 443.5 348 Z " /><path fill="rgb(0,0,0)" stroke="rgb(0,0,0)" stroke-width="1" opacity="0.9764705882352941" d="M 570.5 348 Q 586.5 346.5 592 355.5 L 596 364.5 L 596 373.5 Q 593.9 382.4 587.5 387 Q 582.2 391.2 572.5 391 L 565.5 389 L 559 383.5 Q 553.5 378 554 366.5 Q 555.7 355.7 563.5 351 L 570.5 348 Z " /><path fill="rgb(0,0,0)" stroke="rgb(0,0,0)" stroke-width="1" opacity="0.9764705882352941" d="M 472.5 409 L 479.5 409 L 485 412 L 485 413.5 L 494.5 423 L 506.5 428 L 515.5 428 Q 527.2 425.7 534 418.5 L 540.5 411 Q 543.8 407.8 551.5 409 L 559 414.5 Q 562.5 418.5 561 427.5 Q 557.1 437.6 548.5 443 L 535.5 451 L 522.5 455 L 510.5 456 L 509.5 455 L 496.5 454 L 488.5 451 Q 475.3 445.3 467 434.5 Q 462.5 430 462 421.5 Q 463.5 414.6 468.5 411 L 472.5 409 Z " /><path fill="rgb(0,0,0)" stroke="rgb(0,0,0)" stroke-width="1" opacity="0.9764705882352941" d="M 499.5 505 L 523.5 505 L 547.5 511 Q 573.9 522.6 591 543.5 L 608 567.5 L 617 586.5 L 623 604.5 L 626 617.5 L 627 629.5 L 628 630.5 L 628 639.5 L 629 640.5 L 629 668.5 L 628 669.5 L 628 678.5 L 624 700.5 L 615 726.5 Q 600.6 758.6 575.5 780 Q 559.9 793.9 537.5 801 L 522.5 804 L 501.5 804 L 482.5 800 L 468.5 794 Q 449.6 783.9 436 768.5 Q 414 744.5 403 709.5 L 399 693.5 L 399 688.5 L 397 681.5 L 397 673.5 L 396 672.5 L 396 637.5 L 397 636.5 L 397 627.5 L 398 626.5 L 400 609.5 L 410 579.5 Q 424.1 548.6 448.5 528 Q 459.4 518.4 473.5 512 L 484.5 508 L 499.5 505 Z M 502 541 Q 483 545 472 556 Q 454 571 444 594 L 436 617 L 433 632 L 433 641 L 432 642 L 432 668 L 433 669 L 433 677 L 436 693 Q 441 710 449 725 L 461 742 Q 470 752 482 759 L 495 765 L 505 767 L 519 767 L 534 763 Q 546 758 556 749 Q 569 737 578 720 L 588 693 L 592 670 L 592 640 L 587 614 Q 580 588 565 570 Q 553 554 535 545 L 521 541 L 502 541 Z " /><path fill="rgb(0,0,0)" stroke="rgb(0,0,0)" stroke-width="1" opacity="0" d="M 0 0 L 1024 0 L 1024 1024 L 0 1024 L 0 0 Z M 597 73 L 575 80 L 550 96 Q 532 111 519 132 L 509 152 L 506 164 L 505 165 L 487 166 L 486 167 L 475 168 L 452 175 Q 425 186 406 203 Q 379 226 364 260 L 355 286 L 345 334 L 327 385 Q 305 436 276 480 Q 262 505 251 534 L 240 571 L 235 599 L 234 619 L 233 620 L 233 660 L 234 661 L 234 671 L 235 672 L 236 686 L 243 718 L 251 742 Q 274 799 314 840 Q 350 877 401 900 L 440 914 L 461 919 L 480 921 L 481 922 L 490 922 L 491 923 L 539 923 L 540 922 L 549 922 L 584 915 L 608 907 Q 656 887 693 855 Q 731 821 757 775 Q 772 748 781 717 L 787 691 L 788 680 L 789 679 L 789 671 L 790 670 L 790 660 L 791 659 L 791 617 L 790 616 L 790 606 L 789 605 L 789 599 L 785 576 L 776 543 L 766 517 L 753 490 L 720 433 L 699 390 L 680 338 L 673 310 L 670 292 L 663 268 Q 652 241 635 221 Q 615 197 587 182 L 565 173 L 548 169 L 542 169 Q 548 151 560 139 Q 570 127 584 119 L 597 113 L 613 108 Q 618 104 621 97 Q 622 87 619 82 Q 613 72 597 73 Z " /><path fill="rgb(0,0,0)" stroke="rgb(0,0,0)" stroke-width="1" opacity="0" d="M 499.5 202 L 522.5 202 Q 524.3 204.8 530.5 203 L 557.5 210 Q 587.7 222.3 607 245.5 Q 620 261 628 281.5 L 633 296.5 L 636 313.5 L 646 352.5 L 665 403.5 L 691 456.5 L 720 506.5 L 739 548.5 L 748 577.5 L 753 603.5 L 754 624.5 L 755 625.5 L 755 651.5 L 754 652.5 L 754 663.5 L 753 664.5 L 752 679.5 L 747 702.5 Q 740.3 726.8 730 747.5 Q 707.1 792.6 671.5 825 Q 638.7 855.2 593.5 873 L 575.5 879 L 547.5 885 L 530.5 886 L 529.5 887 L 496.5 887 L 495.5 886 L 486.5 886 L 485.5 885 L 467.5 883 L 443.5 877 Q 417.9 869.1 396.5 857 Q 358.5 835.5 331 803.5 Q 299.7 767.8 282 718.5 L 273 683.5 L 271 661.5 L 270 660.5 L 269 636.5 L 270 635.5 L 270 616.5 L 271 615.5 L 273 593.5 L 279 567.5 L 287 543.5 L 309 496.5 Q 338.7 449.7 362 396.5 L 377 355.5 L 385 326.5 L 392 291.5 L 400 270.5 Q 411.7 246.2 431.5 230 Q 444.4 219.4 460.5 212 L 474.5 207 L 499.5 202 Z M 444 348 L 436 352 Q 430 356 428 365 Q 427 377 432 383 L 438 388 L 447 391 Q 457 391 463 386 L 468 379 L 470 370 L 466 357 Q 462 351 455 348 L 444 348 Z M 571 348 L 564 351 Q 556 356 554 367 Q 554 378 559 384 L 566 389 L 573 391 Q 582 391 588 387 Q 594 382 596 374 L 596 365 L 592 356 Q 586 347 571 348 Z M 473 409 L 469 411 Q 464 415 462 422 Q 463 430 467 435 Q 475 445 489 451 L 497 454 L 510 455 L 511 456 L 523 455 L 536 451 L 549 443 Q 557 438 561 428 Q 563 419 559 415 L 552 409 Q 544 408 541 411 L 534 419 Q 527 426 516 428 L 507 428 L 495 423 L 485 414 L 485 412 L 480 409 L 473 409 Z M 500 505 L 485 508 L 474 512 Q 459 518 449 528 Q 424 549 410 580 L 400 610 L 398 627 L 397 628 L 397 637 L 396 638 L 396 673 L 397 674 L 397 682 L 399 689 L 399 694 L 403 710 Q 414 744 436 769 Q 450 784 469 794 L 483 800 L 502 804 L 523 804 L 538 801 Q 560 794 576 780 Q 601 759 615 727 L 624 701 L 628 679 L 628 670 L 629 669 L 629 641 L 628 640 L 628 631 L 627 630 L 626 618 L 623 605 L 617 587 L 608 568 L 591 544 Q 574 523 548 511 L 524 505 L 500 505 Z " /><path fill="rgb(0,0,0)" stroke="rgb(0,0,0)" stroke-width="1" opacity="0" d="M 501.5 541 L 520.5 541 L 534.5 545 Q 553.2 553.8 565 569.5 Q 579.7 587.7 587 613.5 L 592 639.5 L 592 669.5 L 588 692.5 L 578 719.5 Q 569.3 736.8 555.5 749 Q 546.2 757.7 533.5 763 L 518.5 767 L 504.5 767 L 494.5 765 L 481.5 759 Q 469.8 751.8 461 741.5 L 449 724.5 Q 440.9 710.1 436 692.5 L 433 676.5 L 433 668.5 L 432 667.5 L 432 641.5 L 433 640.5 L 433 631.5 L 436 616.5 L 444 593.5 Q 454 571 471.5 556 Q 483.1 545.1 501.5 541 Z " /></svg>