<svg width="1024" height="1024" version="1.1" xmlns="http://www.w3.org/2000/svg" desc="Created with imagetracer.js version 1.2.6" ><path fill="rgb(10,11,11)" stroke="rgb(10,11,11)" stroke-width="1" opacity="0.9921568627450981" d="M 477 164 L 484.5 165 L 503.5 178 Q 525.1 194.4 543 214.5 Q 563.4 237.6 576 268.5 L 581 283.5 L 585 302.5 Q 583.3 308.7 586 310.5 L 586 343.5 L 585 344.5 L 585 351.5 L 582 367.5 L 571 403.5 L 554 437.5 L 524 482.5 L 508 512.5 L 502 530.5 L 500 540.5 L 499 557.5 L 500 559.5 L 500 561.5 L 501 573.5 L 503.5 578 Q 510.7 553.7 524 535.5 L 538 517.5 L 566 488.5 L 566 487 Q 568.7 488.1 568 485.5 Q 586.6 468.6 602 448.5 L 619 420.5 L 627 393.5 L 628 360.5 L 627 359.5 L 627 350.5 L 628 348 L 632.5 348 L 648 363.5 Q 689.6 413.9 715 480.5 L 728 523.5 L 733 550.5 L 734 564.5 L 735 565.5 L 735 601.5 L 734 602.5 L 734 612.5 L 733 613.5 L 732 624.5 L 726 648.5 L 710 685.5 Q 686 727.5 650.5 758 L 626.5 778 Q 579.5 809.5 536.5 845 L 530 846 L 529 842.5 L 541 814.5 L 559 786.5 L 609 724.5 L 639 679.5 L 653 648.5 L 660 623.5 L 661 612.5 L 662 611.5 L 662 603.5 L 663 602.5 L 663 578.5 L 662 577.5 L 662 568.5 L 661 567.5 L 660 554.5 L 656 538.5 L 648 516.5 L 641.5 506 Q 636.9 520.9 628 531.5 Q 613.3 551.3 595.5 568 L 576 585.5 L 553 611.5 L 545 624.5 L 539 640.5 L 535.5 645 L 532.5 644 L 523 634.5 Q 498 609.5 481 576.5 Q 473.9 561.6 470 543.5 Q 471.5 538 469 536.5 L 469 511.5 L 470 510.5 L 471 498.5 L 477 477.5 Q 485.4 454.9 497 435.5 L 507 409.5 L 513 385.5 L 515 362 L 512 363.5 L 500 381.5 L 480 405.5 L 425 464.5 Q 407.6 485.1 394 509.5 L 384 532.5 L 378 554.5 L 376 573.5 L 375 574.5 L 375 603.5 L 381 636.5 L 394 668.5 L 414 699.5 L 463 761.5 L 480 791.5 L 491 823.5 L 494 849.5 Q 493.5 852.5 489.5 852 Q 474.2 828.8 453.5 811 L 433.5 795 L 370.5 750 L 333 714.5 Q 307.5 687 293 648.5 L 287 627.5 L 284 610.5 L 284 602.5 L 283 601.5 L 283 566.5 L 284 565.5 L 284 557.5 L 288 534.5 L 296 508.5 Q 308.4 475.4 328 449.5 L 354 418.5 L 440 331.5 Q 456.7 312.7 470 290.5 Q 479.3 274.3 484 253.5 L 485 242.5 L 486 241.5 L 486 211.5 L 485 210.5 L 485 202.5 L 482 187.5 L 476 170.5 L 476 166.5 L 477 164 Z " /><path fill="rgb(0,0,0)" stroke="rgb(0,0,0)" stroke-width="1" opacity="0" d="M 0 0 L 1024 0 L 1024 1024 L 0 1024 L 0 0 Z M 477 164 L 476 167 L 476 171 L 482 188 L 485 203 L 485 211 L 486 212 L 486 242 L 485 243 L 484 254 Q 479 274 470 291 Q 457 313 440 332 L 354 419 L 328 450 Q 308 475 296 509 L 288 535 L 284 558 L 284 566 L 283 567 L 283 602 L 284 603 L 284 611 L 287 628 L 293 649 Q 307 687 333 715 L 371 750 L 434 795 L 454 811 Q 474 829 490 852 Q 494 853 494 850 L 491 824 L 480 792 L 463 762 L 414 700 L 394 669 L 381 637 L 375 604 L 375 575 L 376 574 L 378 555 L 384 533 L 394 510 Q 408 485 425 465 L 480 406 L 500 382 L 512 364 L 515 362 L 513 386 L 507 410 L 497 436 Q 485 455 477 478 L 471 499 L 470 511 L 469 512 L 469 537 Q 472 538 470 544 Q 474 562 481 577 Q 498 610 523 635 L 533 644 L 536 645 L 539 641 L 545 625 L 553 612 L 576 586 L 596 568 Q 613 551 628 532 Q 637 521 642 506 L 648 517 L 656 539 L 660 555 L 661 568 L 662 569 L 662 578 L 663 579 L 663 603 L 662 604 L 662 612 L 661 613 L 660 624 L 653 649 L 639 680 L 609 725 L 559 787 L 541 815 L 529 843 L 530 846 L 537 845 Q 580 810 627 778 L 651 758 Q 686 727 710 686 L 726 649 L 732 625 L 733 614 L 734 613 L 734 603 L 735 602 L 735 566 L 734 565 L 733 551 L 728 524 L 715 481 Q 690 414 648 364 L 633 348 L 628 348 L 627 351 L 627 360 L 628 361 L 627 394 L 619 421 L 602 449 Q 587 469 568 486 Q 569 488 566 487 L 566 489 L 538 518 L 524 536 Q 511 554 504 578 L 501 574 L 500 562 L 500 560 L 499 558 L 500 541 L 502 531 L 508 513 L 524 483 L 554 438 L 571 404 L 582 368 L 585 352 L 585 345 L 586 344 L 586 311 Q 583 309 585 303 L 581 284 L 576 269 Q 563 238 543 215 Q 525 194 504 178 L 485 165 L 477 164 Z " /></svg>